<svg xmlns="http://www.w3.org/2000/svg" viewBox="0 0 100 117.5" enable-background="new 0 0 100 117.5"><path fill="#61BEE8" d="M87.3 49.8c14.2 14.2 18.2 19.4 3.2 34.4l-23.7 23.7c-14.2 14.2-19.8 12.3-35.3-3.2L12.8 86C-1.7 71.4-2.6 65.6 10.9 52l23.7-23.7C49.9 13.1 55.5 18 68.9 31.4l18.4 18.4z"/><path fill="#F6ED4D" d="M86.6 40.2c14.2 14.2 18.2 19.4 3.2 34.4L66.1 98.4c-14.2 14.2-19.8 12.3-35.3-3.2L12.1 76.4C-2.5 61.9-3.3 56 10.2 42.5l23.7-23.7C49.2 3.5 54.8 8.4 68.2 21.9l18.4 18.3z"/><path fill="#E7425A" d="M86 30.9c14.2 14.2 18.2 19.4 3.2 34.4L65.5 89c-14.2 14.2-19.8 12.3-35.3-3.2L11.5 67.1C-3 52.6-3.9 46.7 9.6 33.1L33.4 9.4C48.6-5.8 54.2-.9 67.6 12.5L86 30.9z"/><path fill="#fff" d="M64.4 63.2c.5 0 1 .1 1.4.3.4.2.8.5 1.2.8s.6.7.8 1.2.3.9.3 1.4c0 1-.4 1.8-1.1 2.6-5.1 4.1-10.9 6.1-17.3 6.1-7.6 0-14.1-2.7-19.5-8.1S22.1 55.6 22.1 48s2.7-14.1 8.1-19.4c5.4-5.4 11.9-8.1 19.5-8.1 6.5 0 12.4 2.1 17.7 6.4.6.6 1 1.5 1 2.5 0 .5-.1 1-.3 1.4-.2.4-.4.8-.8 1.2-.3.3-.7.6-1.2.8-.4.2-.9.3-1.4.3-.9 0-1.7-.3-2.5-1-1.7-1.4-3.7-2.4-5.8-3.2-2.1-.7-4.3-1.1-6.7-1.1-5.6 0-10.4 2-14.4 6-3.9 3.9-5.9 8.7-5.9 14.3 0 5.6 2 10.4 5.9 14.3 3.9 3.9 8.7 5.9 14.4 5.9 4.8 0 9-1.5 12.7-4.4.5-.5 1.2-.7 2-.7z"/></svg>