<svg xmlns="http://www.w3.org/2000/svg" viewBox="0 0 189.6 222.8" enable-background="new 0 0 189.6 222.8"><path fill="#61BEE8" d="M165.5 94.4c26.9 26.9 34.5 36.8 6.1 65.2l-45 45c-26.9 26.9-37.6 23.2-66.9-6L24.2 163C-3.3 135.5-5 124.3 20.7 98.7l45-45c28.9-28.9 39.5-19.6 65 5.9l34.8 34.8z"/><path fill="#F6ED4D" d="M164.2 76.3c26.9 26.9 34.5 36.8 6.1 65.2l-45 45c-26.9 26.9-37.6 23.3-66.9-6l-35.6-35.6c-27.5-27.5-29.2-38.7-3.5-64.3l45-45c28.9-28.9 39.5-19.6 65 5.9l34.9 34.8z"/><path fill="#E7425A" d="M163.1 58.5c26.9 26.9 34.5 36.8 6.1 65.2l-45 45c-26.9 26.9-37.6 23.2-66.9-6l-35.6-35.6C-5.8 99.7-7.4 88.5 18.2 62.8l45-45c28.9-28.9 39.5-19.6 65 5.9l34.9 34.8z"/><path fill="#fff" d="M122.1 119.8c1 0 1.8.2 2.7.6.8.4 1.6.9 2.2 1.5.6.6 1.1 1.3 1.5 2.2.4.8.6 1.8.6 2.7 0 1.8-.7 3.5-2.2 5-9.7 7.7-20.6 11.6-32.8 11.6-14.4 0-26.8-5.1-36.9-15.3-10.2-10.2-15.3-22.5-15.3-36.9 0-14.4 5.1-26.7 15.3-36.9C67.3 44 79.6 38.9 94 38.9c12.4 0 23.5 4.1 33.5 12.2 1.2 1.2 1.8 2.8 1.8 4.8 0 1-.2 1.9-.5 2.7-.3.8-.8 1.6-1.5 2.2-.6.6-1.4 1.1-2.2 1.5-.8.3-1.8.5-2.7.5-1.7 0-3.3-.7-4.8-2-3.3-2.6-7-4.6-10.9-6-4-1.4-8.2-2.1-12.7-2.1-10.6 0-19.7 3.8-27.2 11.3-7.4 7.4-11.2 16.5-11.2 27.1 0 10.7 3.7 19.7 11.2 27.2 7.5 7.5 16.6 11.2 27.2 11.2 9.1 0 17.1-2.8 24-8.4 1.2-.9 2.5-1.3 4.1-1.3z"/></svg>