<svg width="50" height="50" viewBox="0 0 50 50" xmlns="http://www.w3.org/2000/svg"><title>Pinterest</title><path d="M25 0C11.193 0 0 11.193 0 25s11.193 25 25 25 25-11.193 25-25S38.807 0 25 0zm0 3C12.85 3 3 12.85 3 25s9.85 22 22 22 22-9.85 22-22S37.15 3 25 3zm-9.5 18.33c0 2.568.918 4.853 2.887 5.705.323.14.612.005.706-.374.065-.26.22-.92.288-1.195.098-.374.06-.506-.2-.832-.57-.71-.93-1.627-.93-2.93 0-3.772 2.666-7.15 6.94-7.15 3.787 0 5.867 2.45 5.867 5.723 0 4.306-1.8 7.94-4.47 7.94-1.474 0-2.578-1.292-2.224-2.877.424-1.893 1.245-3.934 1.245-5.3 0-1.223-.62-2.24-1.9-2.24-1.51 0-2.72 1.65-2.72 3.863 0 1.41.45 2.363.45 2.363L19.62 32.16c-.538 2.416-.08 5.377-.042 5.676.023.177.238.22.335.085.14-.19 1.935-2.54 2.545-4.883.173-.664.992-4.105.992-4.105.49.99 1.92 1.86 3.444 1.86 4.53 0 7.606-4.375 7.606-10.234 0-4.43-3.542-8.555-8.925-8.555C18.877 12 15.5 17.09 15.5 21.33zm0 0"/></svg>