<svg width="50" height="50" viewBox="0 0 50 50" xmlns="http://www.w3.org/2000/svg"><title>Pinterest</title><path d="M25 0C11.193 0 0 11.193 0 25s11.193 25 25 25 25-11.193 25-25S38.807 0 25 0zm0 3C12.85 3 3 12.85 3 25s9.85 22 22 22 22-9.85 22-22S37.15 3 25 3zm-9.5 18.33c0 2.568.918 4.853 2.887 5.705.323.14.612.005.706-.374.065-.26.22-.922.288-1.198.095-.374.058-.506-.202-.832-.568-.71-.93-1.628-.93-2.93 0-3.773 2.665-7.152 6.94-7.152 3.786 0 5.866 2.45 5.866 5.724 0 4.306-1.8 7.94-4.47 7.94-1.474 0-2.578-1.292-2.224-2.877.423-1.892 1.244-3.933 1.244-5.3 0-1.222-.62-2.24-1.9-2.24-1.51 0-2.72 1.65-2.72 3.864 0 1.41.45 2.363.45 2.363L19.62 32.16c-.538 2.416-.08 5.377-.042 5.676.023.177.238.22.335.085.14-.19 1.935-2.54 2.545-4.886.173-.664.992-4.105.992-4.105.49.99 1.92 1.86 3.444 1.86 4.53 0 7.606-4.376 7.606-10.235 0-4.43-3.542-8.555-8.925-8.555-6.698 0-10.075 5.087-10.075 9.33zm0 0" fill="#000"/></svg>