<svg width="50" height="50" viewBox="0 0 50 50" xmlns="http://www.w3.org/2000/svg"><title>Google +</title><path d="M25 0C11.193 0 0 11.193 0 25s11.193 25 25 25 25-11.193 25-25S38.807 0 25 0zm0 3C12.85 3 3 12.85 3 25s9.85 22 22 22 22-9.85 22-22S37.15 3 25 3zm13.245 19.11v5.278h-2.24V22.11h-5.23v-2.197h5.23V14.68h2.24v5.233h3.993c.294.712.55 1.446.762 2.197h-4.755zm-26.52 15.166c2.915-1.784 6.84-2.02 8.962-2.154-.657-.842-1.415-1.734-1.415-3.198 0-.79.236-1.262.472-1.817-.523.05-1.028.1-1.5.1-4.97 0-7.782-3.702-7.782-7.353 0-2.154.994-4.548 3-6.28C16.14 14.374 19.322 14 21.85 14h9.65l-3 1.685h-2.898c1.078.89 3.32 2.763 3.32 6.327 0 3.467-1.972 5.1-3.926 6.647-.624.602-1.315 1.26-1.315 2.285s.69 1.6 1.215 2.02l1.684 1.312c2.07 1.716 3.94 3.315 3.94 6.546 0 2.13-.994 4.27-2.934 5.91-1.044.17-2.114.26-3.205.263 1.97-.864 2.99-2.443 2.99-4.34 0-2.39-1.533-3.65-5.104-6.193-.37-.034-.606-.034-1.078-.034-.42 0-2.95.084-4.92.74-1.027.37-4.025 1.5-4.025 4.83 0 .362.038.713.114 1.05-4.94-3.66-2.8-3.143-3.363-3.143.562-.943 1.434-1.872 2.726-2.635zm7.176-21.73c-1.21 0-2.522.608-3.28 1.545-.792.987-1.03 2.25-1.03 3.46 0 3.148 1.82 8.348 5.86 8.348 1.165 0 2.43-.572 3.187-1.313 1.078-1.077 1.162-2.574 1.162-3.416 0-3.383-2.006-8.62-5.897-8.62zm0 0"/></svg>