<svg width="50" height="50" viewBox="0 0 50 50" xmlns="http://www.w3.org/2000/svg"><title>Twitter</title><path d="M25 50c13.807 0 25-11.193 25-25S38.807 0 25 0 0 11.193 0 25s11.193 25 25 25zm0-3c12.15 0 22-9.85 22-22S37.15 3 25 3 3 12.85 3 25s9.85 22 22 22zm-.318-26.446l.048.822-.795-.1c-2.893-.386-5.42-1.694-7.566-3.892l-1.05-1.09-.27.805c-.573 1.794-.208 3.69.985 4.964.636.704.492.805-.604.385-.38-.135-.715-.235-.746-.185-.112.117.27 1.644.572 2.247.413.84 1.256 1.66 2.178 2.147l.778.385-.92.017c-.892 0-.923.016-.828.37.318 1.09 1.574 2.246 2.973 2.75l.985.35-.858.538c-1.272.772-2.766 1.208-4.26 1.24-.716.018-1.304.085-1.304.135 0 .168 1.94 1.107 3.068 1.476 3.386 1.09 7.408.622 10.428-1.24 2.146-1.325 4.292-3.958 5.293-6.507.54-1.36 1.08-3.84 1.08-5.032 0-.77.048-.87.938-1.793.525-.537 1.018-1.124 1.113-1.292.16-.318.144-.318-.667-.033-1.35.503-1.542.436-.874-.32.492-.536 1.08-1.508 1.08-1.793 0-.052-.24.032-.51.183-.285.168-.92.42-1.398.57l-.858.285-.78-.553c-.428-.302-1.032-.637-1.35-.738-.81-.235-2.05-.2-2.782.067-1.987.755-3.243 2.7-3.1 4.83 0 0-.143-2.13 0 0zm0 0" fill="#000"/></svg>