<svg width="50" height="50" viewBox="0 0 50 50" xmlns="http://www.w3.org/2000/svg"><title>Pinterest</title><path d="M25 0C11.193 0 0 11.193 0 25s11.193 25 25 25 25-11.193 25-25S38.807 0 25 0zm0 3C12.85 3 3 12.85 3 25s9.85 22 22 22 22-9.85 22-22S37.15 3 25 3zm-9.5 18.33c0 2.568.918 4.853 2.887 5.705.323.14.612.005.706-.374.065-.26.22-.92.288-1.19.1-.375.06-.507-.2-.833-.57-.71-.93-1.627-.93-2.93 0-3.772 2.67-7.15 6.94-7.15 3.79 0 5.87 2.45 5.87 5.723 0 4.305-1.8 7.94-4.47 7.94-1.473 0-2.58-1.293-2.223-2.878.424-1.892 1.245-3.933 1.245-5.3 0-1.222-.62-2.24-1.9-2.24-1.51 0-2.72 1.65-2.72 3.864 0 1.41.45 2.363.45 2.363l-1.82 8.132c-.537 2.417-.08 5.378-.04 5.677.022.176.237.22.334.084.14-.19 1.935-2.54 2.545-4.882.173-.664.99-4.105.99-4.105.49.99 1.92 1.86 3.446 1.86 4.53 0 7.606-4.375 7.606-10.234 0-4.43-3.54-8.555-8.924-8.555-6.7-.01-10.076 5.08-10.076 9.32zm0 0"/></svg>