<svg width="50" height="50" viewBox="0 0 50 50" xmlns="http://www.w3.org/2000/svg"><title>Twitter</title><path d="M25 50c13.807 0 25-11.193 25-25S38.807 0 25 0 0 11.193 0 25s11.193 25 25 25zm0-3c12.15 0 22-9.85 22-22S37.15 3 25 3 3 12.85 3 25s9.85 22 22 22zm-.318-26.446l.048.822-.795-.1c-2.893-.386-5.42-1.694-7.566-3.892l-1.05-1.09-.27.805c-.58 1.79-.21 3.69.98 4.96.634.7.49.802-.606.382-.38-.135-.716-.235-.747-.185-.11.117.27 1.644.572 2.247.412.84 1.255 1.66 2.177 2.146l.78.386-.92.016c-.89 0-.922.015-.827.37.32 1.09 1.575 2.245 2.974 2.75l.985.35-.857.537c-1.272.77-2.766 1.21-4.26 1.24-.716.02-1.304.084-1.304.134 0 .167 1.94 1.106 3.066 1.475 3.386 1.09 7.408.622 10.428-1.24 2.146-1.325 4.292-3.958 5.293-6.507.54-1.36 1.08-3.84 1.08-5.03 0-.77.047-.87.937-1.795.525-.538 1.018-1.125 1.113-1.29.16-.32.144-.32-.667-.035-1.35.504-1.54.437-.87-.32.49-.535 1.08-1.507 1.08-1.792 0-.05-.24.033-.51.184-.287.17-.92.42-1.4.57l-.858.286-.78-.553c-.427-.3-1.03-.637-1.35-.738-.81-.236-2.05-.2-2.78.066-1.987.754-3.243 2.7-3.1 4.83 0 0-.143-2.13 0 0zm0 0"/></svg>