<svg width="50" height="50" viewBox="0 0 50 50" xmlns="http://www.w3.org/2000/svg"><title>Google +</title><path d="M25 0C11.193 0 0 11.193 0 25s11.193 25 25 25 25-11.193 25-25S38.807 0 25 0zm0 3C12.85 3 3 12.85 3 25s9.85 22 22 22 22-9.85 22-22S37.15 3 25 3zm13.245 19.11v5.278h-2.24V22.11h-5.23v-2.197h5.23V14.68h2.24v5.233h3.993c.294.712.55 1.446.762 2.197h-4.755zm-26.52 15.166c2.915-1.784 6.84-2.02 8.962-2.154-.657-.842-1.415-1.734-1.415-3.198 0-.79.236-1.262.472-1.817-.523.05-1.028.1-1.5.1-4.97 0-7.782-3.702-7.782-7.353 0-2.154.994-4.548 3-6.28 2.677-2.2 5.86-2.574 8.387-2.574h9.65l-2.997 1.685h-2.898c1.078.89 3.32 2.763 3.32 6.327 0 3.467-1.972 5.1-3.926 6.647-.624.605-1.315 1.262-1.315 2.288 0 1.027.69 1.6 1.213 2.02l1.684 1.312c2.072 1.717 3.942 3.316 3.942 6.547 0 2.13-.995 4.27-2.935 5.91-1.044.17-2.114.26-3.205.263 1.97-.863 2.99-2.442 2.99-4.34 0-2.39-1.534-3.65-5.105-6.192-.37-.034-.606-.034-1.078-.034-.42 0-2.948.085-4.918.74-1.028.37-4.026 1.5-4.026 4.83 0 .363.038.714.114 1.052-4.94-3.66-2.8-3.144-3.362-3.144.562-.944 1.434-1.873 2.726-2.636zm7.176-21.73c-1.21 0-2.525.608-3.283 1.545-.792.984-1.028 2.246-1.028 3.458 0 3.147 1.818 8.347 5.86 8.347 1.163 0 2.427-.572 3.185-1.313 1.078-1.077 1.162-2.574 1.162-3.416 0-3.382-2.005-8.62-5.896-8.62zm0 0" fill="#000"/></svg>