<svg width="50" height="50" viewBox="0 0 50 50" xmlns="http://www.w3.org/2000/svg"><title>Intsagram</title><path d="M25 0C11.193 0 0 11.193 0 25s11.193 25 25 25 25-11.193 25-25S38.807 0 25 0zm0 3C12.85 3 3 12.85 3 25s9.85 22 22 22 22-9.85 22-22S37.15 3 25 3zm10.95 31.51c.02-.102.034-.206.05-.31V15.8c-.015-.102-.03-.203-.047-.304-.193-1.03-1.006-1.83-2.005-1.973-.04-.006-.082-.015-.123-.023h-17.65c-.107.02-.214.035-.32.06-.974.232-1.695 1.053-1.834 2.085 0 .043-.01.086-.02.13v18.452l.06.35c.22.997 1.03 1.77 2 1.9.05.006.1.015.14.023h17.6c.12-.02.23-.037.35-.063.9-.2 1.632-.983 1.807-1.927zM16.38 33.1c0 .49.406.91.874.91h15.488c.473 0 .876-.42.876-.914v-10.27h-2.1c.296.99.388 2 .27 3.026-.116 1.028-.432 1.984-.948 2.867s-1.185 1.61-2.004 2.19c-2.124 1.512-4.92 1.645-7.172.323-1.14-.667-2.034-1.598-2.657-2.798-.93-1.79-1.08-3.67-.533-5.62H16.38V33.1zm8.518-3.442c2.49.056 4.505-2.025 4.558-4.555.054-2.61-1.96-4.765-4.456-4.764-2.44-.01-4.423 2.05-4.458 4.59-.035 2.6 1.962 4.67 4.356 4.72zm8.72-11.176v-2.18c0-.52-.394-.934-.892-.934h-2.078c-.496 0-.892.416-.892.936 0 .72-.002 1.44.002 2.16 0 .108.02.22.053.32.13.384.46.62.88.62.335.002.67 0 1.003 0 .36-.003.725.004 1.088-.005.466-.02.846-.43.846-.92zm0 0"/></svg>