<svg width="50" height="50" viewBox="0 0 50 50" xmlns="http://www.w3.org/2000/svg"><title>YouTube</title><path d="M50 25C50 11.193 38.807 0 25 0S0 11.193 0 25s11.193 25 25 25 25-11.193 25-25zm-3 0c0-12.15-9.85-22-22-22S3 12.85 3 25s9.85 22 22 22 22-9.85 22-22zm-10.232 5.765c-.298 1.298-1.36 2.254-2.636 2.397-3.025.338-6.086.34-9.134.338-3.047 0-6.11 0-9.133-.338-1.277-.143-2.337-1.1-2.636-2.397-.43-1.847-.43-3.863-.43-5.765 0-1.902 0-3.918.43-5.765.294-1.298 1.354-2.254 2.63-2.397 3.024-.338 6.086-.34 9.133-.338 3.047 0 6.11 0 9.133.338 1.276.143 2.337 1.1 2.635 2.397.425 1.847.42 3.863.42 5.765 0 1.902 0 3.918-.425 5.765zM22.805 20.5l6.75 3.897-6.75 3.897V20.5zm0 0"/></svg>