<?xml version="1.0" encoding="utf-8"?>
<!-- Generator: Adobe Illustrator 18.0.0, SVG Export Plug-In . SVG Version: 6.00 Build 0)  -->
<!DOCTYPE svg PUBLIC "-//W3C//DTD SVG 1.1//EN" "http://www.w3.org/Graphics/SVG/1.1/DTD/svg11.dtd">
<svg version="1.1" id="Layer_1" xmlns="http://www.w3.org/2000/svg" xmlns:xlink="http://www.w3.org/1999/xlink" x="0px" y="0px"
	 viewBox="0 0 155.8 56.4" enable-background="new 0 0 155.8 56.4" xml:space="preserve">
<path fill="#53B1B9" d="M30.8,40.5c-0.8,3.4-2.6,6-5.3,7.9c-3,2.2-6.3,2.8-9.8,2.1c-3.5-0.8-6.3-2.8-8.3-6c-2-3.2-2.6-6.8-1.9-10.6
	c0.7-3.8,2.6-6.8,5.6-8.9c2.7-1.9,5.7-2.7,8.9-2.2c0.6,0.1,1.2-0.1,1.7-0.5c0.6-0.4,1-1,1.1-1.8c0.1-0.8,0-1.5-0.4-2.1
	c-0.4-0.7-1.1-1.1-1.9-1.3c-4.4-0.6-8.5,0.4-12.3,3.1c-4.2,3-6.8,7.2-7.8,12.5c-1,5.3-0.1,10.3,2.7,14.8c2.8,4.5,6.6,7.3,11.6,8.4
	c4.9,1.1,9.5,0.1,13.7-2.9c2.3-1.7,4.1-3.7,5.5-6.1c-1.4-2.1-2.4-4.4-2.9-7C30.9,40.2,30.8,40.3,30.8,40.5z"/>
<path fill="#53B1B9" d="M47.9,17c-5,0-9.3,1.9-12.9,5.8c-3.6,3.9-5.3,8.5-5.3,13.9c0,1.5,0.2,3,0.4,4.4c0.5,2.5,1.5,4.9,2.9,7
	c0.6,0.9,1.3,1.8,2,2.6c3.6,3.9,7.9,5.8,12.9,5.8c5,0,9.3-1.9,12.9-5.8c3.6-3.8,5.3-8.5,5.3-13.9c0-5.4-1.8-10.1-5.3-13.9
	C57.2,18.9,52.9,17,47.9,17z M57.1,46.6c-2.5,2.7-5.6,4.1-9.2,4.1c-3.6,0-6.7-1.4-9.2-4.1c-2.5-2.7-3.8-6.1-3.8-10
	c0-3.9,1.3-7.2,3.8-9.9c2.5-2.7,5.6-4.1,9.2-4.1c3.6,0,6.7,1.4,9.2,4.1c2.5,2.7,3.8,6.1,3.8,9.9C60.9,40.5,59.6,43.9,57.1,46.6z"/>
<path fill="#53B1B9" d="M102.1,0c-0.7,0-1.3,0.3-1.8,0.8c-0.5,0.6-0.8,1.2-0.8,2v20c0,0-0.1-0.1-0.1-0.1c-3.6-3.8-7.9-5.8-12.9-5.8
	c-5,0-9.3,1.9-12.9,5.8c-3.5,3.9-5.3,8.5-5.3,13.9c0,5.4,1.8,10.1,5.3,13.9c3.6,3.9,7.9,5.8,12.9,5.8c5,0,9.3-1.9,12.9-5.8
	c3.6-3.8,5.3-8.5,5.3-13.9V2.8c0-0.8-0.3-1.4-0.8-2C103.4,0.3,102.8,0,102.1,0z M95.7,46.6c-2.5,2.7-5.6,4.1-9.2,4.1
	c-3.6,0-6.7-1.4-9.2-4.1c-2.5-2.7-3.8-6.1-3.8-10c0-3.9,1.3-7.2,3.8-9.9c2.5-2.7,5.6-4.1,9.2-4.1c3.6,0,6.7,1.4,9.2,4.1
	c2.5,2.7,3.8,6.1,3.8,9.9C99.5,40.5,98.2,43.9,95.7,46.6z"/>
<path fill="#53B1B9" d="M112.8,5c-0.9,0-1.7,0.3-2.3,1c-0.6,0.7-1,1.5-1,2.5c0,1,0.3,1.8,1,2.5c0.6,0.7,1.4,1,2.3,1
	c0.9,0,1.7-0.3,2.3-1c0.6-0.7,1-1.5,1-2.5c0-1-0.3-1.8-1-2.5C114.4,5.3,113.7,5,112.8,5z"/>
<path fill="#53B1B9" d="M112.8,17c-0.7,0-1.3,0.3-1.8,0.8c-0.5,0.6-0.8,1.2-0.8,2v33.8c0,0.8,0.3,1.4,0.8,2c0.5,0.6,1.1,0.8,1.8,0.8
	c0.7,0,1.3-0.3,1.8-0.8c0.5-0.5,0.8-1.2,0.8-2V19.8c0-0.8-0.3-1.4-0.8-2C114.1,17.2,113.5,17,112.8,17z"/>
<path fill="#53B1B9" d="M150.5,22.7c-3.6-3.8-7.9-5.8-12.9-5.8c-5,0-9.3,1.9-12.9,5.8c-3.6,3.9-5.3,8.5-5.3,13.9
	c0,5.4,1.8,10.1,5.3,13.9c3.6,3.9,7.9,5.8,12.9,5.8c4.6,0,8.5-1.6,11.9-4.7c0.5-0.6,0.8-1.2,0.8-2c0-0.8-0.3-1.4-0.8-2
	c-0.5-0.5-1.1-0.8-1.8-0.8c-0.6,0-1.1,0.2-1.6,0.6c-2.3,2.2-5.1,3.3-8.4,3.3c-3.6,0-6.7-1.4-9.2-4.1c-1.9-2.1-3.1-4.4-3.6-7.1h28.4
	c0.7,0,1.3-0.3,1.8-0.8c0.5-0.6,0.8-1.2,0.8-2C155.8,31.2,154,26.6,150.5,22.7z M124.8,33.8c0.5-2.7,1.7-5.1,3.6-7.1
	c2.5-2.7,5.6-4.1,9.2-4.1c3.6,0,6.7,1.4,9.2,4.1c1.9,2.1,3.1,4.4,3.6,7.1H124.8z"/>
</svg>
