<svg xmlns="http://www.w3.org/2000/svg" viewBox="0 0 100 36.2" enable-background="new 0 0 100 36.2"><path d="M19.7 26c-.5 2.2-1.7 3.9-3.4 5.1-1.9 1.4-4 1.8-6.3 1.3s-4-1.8-5.3-3.9c-1.3-2.1-1.7-4.3-1.2-6.8.5-2.4 1.7-4.3 3.6-5.7 1.7-1.2 3.6-1.7 5.7-1.4.4 0 .8-.1 1.1-.3.4-.3.6-.7.7-1.1.1-.5 0-.9-.2-1.4-.3-.5-.7-.7-1.2-.8-2.8-.4-5.5.3-7.9 2-2.7 1.9-4.4 4.6-5 8-.6 3.4-.1 6.6 1.7 9.5 1.8 2.9 4.3 4.7 7.4 5.4 3.2.7 6.1.1 8.8-1.9 1.5-1.1 2.7-2.4 3.5-3.9-.9-1.4-1.5-2.9-1.8-4.5-.1.2-.1.3-.2.4zm11-15.1c-3.2 0-6 1.2-8.3 3.7C20.2 17 19 20 19 23.5c0 1 .1 1.9.3 2.8.3 1.6.9 3.1 1.8 4.5.4.6.8 1.1 1.3 1.7 2.3 2.5 5 3.7 8.3 3.7 3.2 0 6-1.2 8.3-3.7 2.3-2.5 3.4-5.4 3.4-8.9s-1.1-6.5-3.4-8.9c-2.3-2.6-5-3.8-8.3-3.8zm5.9 19c-1.6 1.8-3.6 2.6-5.9 2.6-2.3 0-4.3-.9-5.9-2.6-1.6-1.8-2.4-3.9-2.4-6.4 0-2.5.8-4.6 2.4-6.4 1.6-1.8 3.6-2.6 5.9-2.6 2.3 0 4.3.9 5.9 2.6 1.6 1.8 2.4 3.9 2.4 6.4.1 2.5-.7 4.6-2.4 6.4zM65.5 0c-.5 0-.9.2-1.2.5-.3.4-.5.8-.5 1.3v12.9l-.1-.1c-2.3-2.5-5-3.7-8.3-3.7-3.2 0-6 1.2-8.3 3.7-2.3 2.5-3.4 5.4-3.4 8.9s1.1 6.5 3.4 8.9c2.3 2.5 5 3.7 8.3 3.7 3.2 0 6-1.2 8.3-3.7 2.3-2.5 3.4-5.4 3.4-8.9V1.8c0-.5-.2-.9-.5-1.3-.2-.3-.6-.5-1.1-.5zm-4.1 29.9c-1.6 1.8-3.6 2.6-5.9 2.6-2.3 0-4.3-.9-5.9-2.6-1.6-1.8-2.4-3.9-2.4-6.4 0-2.5.8-4.6 2.4-6.4 1.6-1.8 3.6-2.6 5.9-2.6 2.3 0 4.3.9 5.9 2.6 1.6 1.8 2.4 3.9 2.4 6.4 0 2.5-.8 4.6-2.4 6.4zm11-26.7c-.6 0-1.1.2-1.5.7-.4.4-.6 1-.6 1.6 0 .6.2 1.1.6 1.6.4.4.9.7 1.5.7s1.1-.2 1.5-.7c.4-.4.6-1 .6-1.6 0-.6-.2-1.1-.6-1.6-.4-.5-.9-.7-1.5-.7zm0 7.7c-.5 0-.9.2-1.2.5-.3.4-.5.8-.5 1.3v21.7c0 .5.2.9.5 1.3s.7.5 1.2.5.9-.2 1.2-.5c.3-.4.5-.8.5-1.3V12.7c0-.5-.2-.9-.5-1.3-.4-.3-.8-.5-1.2-.5zm24.2 3.7c-2.3-2.5-5-3.7-8.3-3.7-3.2 0-6 1.2-8.3 3.7-2.3 2.5-3.4 5.4-3.4 8.9s1.1 6.5 3.4 8.9c2.3 2.5 5 3.7 8.3 3.7 2.9 0 5.5-1 7.6-3 .3-.4.5-.8.5-1.3s-.2-.9-.5-1.3-.7-.5-1.2-.5c-.4 0-.7.1-1 .4-1.5 1.4-3.3 2.1-5.4 2.1-2.3 0-4.3-.9-5.9-2.6-1.2-1.3-2-2.9-2.3-4.6h18.2c.5 0 .9-.2 1.2-.5.3-.4.5-.8.5-1.3 0-3.5-1.1-6.5-3.4-8.9zm-16.5 7.1c.3-1.7 1.1-3.3 2.3-4.6 1.6-1.8 3.6-2.6 5.9-2.6 2.3 0 4.3.9 5.9 2.6 1.2 1.3 2 2.9 2.3 4.6H80.1z" fill="#53B1B9"/></svg>