<svg xmlns="http://www.w3.org/2000/svg" viewBox="0 0 155.8 56.4" enable-background="new 0 0 155.8 56.4"><path fill="#53B1B9" d="M30.8 40.5c-.8 3.4-2.6 6-5.3 7.9-3 2.2-6.3 2.8-9.8 2.1-3.5-.8-6.3-2.8-8.3-6-2-3.2-2.6-6.8-1.9-10.6.7-3.8 2.6-6.8 5.6-8.9 2.7-1.9 5.7-2.7 8.9-2.2.6.1 1.2-.1 1.7-.5.6-.4 1-1 1.1-1.8.1-.8 0-1.5-.4-2.1-.4-.7-1.1-1.1-1.9-1.3-4.4-.6-8.5.4-12.3 3.1-4.2 3-6.8 7.2-7.8 12.5S.3 43 3.1 47.5c2.8 4.5 6.6 7.3 11.6 8.4 4.9 1.1 9.5.1 13.7-2.9 2.3-1.7 4.1-3.7 5.5-6.1-1.4-2.1-2.4-4.4-2.9-7-.1.3-.2.4-.2.6zM47.9 17c-5 0-9.3 1.9-12.9 5.8-3.6 3.9-5.3 8.5-5.3 13.9 0 1.5.2 3 .4 4.4.5 2.5 1.5 4.9 2.9 7 .6.9 1.3 1.8 2 2.6 3.6 3.9 7.9 5.8 12.9 5.8s9.3-1.9 12.9-5.8c3.6-3.8 5.3-8.5 5.3-13.9s-1.8-10.1-5.3-13.9c-3.6-4-7.9-5.9-12.9-5.9zm9.2 29.6c-2.5 2.7-5.6 4.1-9.2 4.1-3.6 0-6.7-1.4-9.2-4.1-2.5-2.7-3.8-6.1-3.8-10 0-3.9 1.3-7.2 3.8-9.9s5.6-4.1 9.2-4.1c3.6 0 6.7 1.4 9.2 4.1 2.5 2.7 3.8 6.1 3.8 9.9 0 3.9-1.3 7.3-3.8 10zm45-46.6c-.7 0-1.3.3-1.8.8-.5.6-.8 1.2-.8 2v20l-.1-.1c-3.6-3.8-7.9-5.8-12.9-5.8s-9.3 1.9-12.9 5.8c-3.5 3.9-5.3 8.5-5.3 13.9s1.8 10.1 5.3 13.9c3.6 3.9 7.9 5.8 12.9 5.8s9.3-1.9 12.9-5.8c3.6-3.8 5.3-8.5 5.3-13.9V2.8c0-.8-.3-1.4-.8-2-.5-.5-1.1-.8-1.8-.8zm-6.4 46.6c-2.5 2.7-5.6 4.1-9.2 4.1-3.6 0-6.7-1.4-9.2-4.1-2.5-2.7-3.8-6.1-3.8-10 0-3.9 1.3-7.2 3.8-9.9s5.6-4.1 9.2-4.1c3.6 0 6.7 1.4 9.2 4.1 2.5 2.7 3.8 6.1 3.8 9.9 0 3.9-1.3 7.3-3.8 10zM112.8 5c-.9 0-1.7.3-2.3 1-.6.7-1 1.5-1 2.5s.3 1.8 1 2.5c.6.7 1.4 1 2.3 1 .9 0 1.7-.3 2.3-1 .6-.7 1-1.5 1-2.5s-.3-1.8-1-2.5-1.4-1-2.3-1zm0 12c-.7 0-1.3.3-1.8.8-.5.6-.8 1.2-.8 2v33.8c0 .8.3 1.4.8 2 .5.6 1.1.8 1.8.8s1.3-.3 1.8-.8.8-1.2.8-2V19.8c0-.8-.3-1.4-.8-2-.5-.6-1.1-.8-1.8-.8zm37.7 5.7c-3.6-3.8-7.9-5.8-12.9-5.8s-9.3 1.9-12.9 5.8c-3.6 3.9-5.3 8.5-5.3 13.9s1.8 10.1 5.3 13.9c3.6 3.9 7.9 5.8 12.9 5.8 4.6 0 8.5-1.6 11.9-4.7.5-.6.8-1.2.8-2s-.3-1.4-.8-2c-.5-.5-1.1-.8-1.8-.8-.6 0-1.1.2-1.6.6-2.3 2.2-5.1 3.3-8.4 3.3-3.6 0-6.7-1.4-9.2-4.1-1.9-2.1-3.1-4.4-3.6-7.1h28.4c.7 0 1.3-.3 1.8-.8.5-.6.8-1.2.8-2-.1-5.5-1.9-10.1-5.4-14zm-25.7 11.1c.5-2.7 1.7-5.1 3.6-7.1 2.5-2.7 5.6-4.1 9.2-4.1 3.6 0 6.7 1.4 9.2 4.1 1.9 2.1 3.1 4.4 3.6 7.1h-25.6z"/></svg>