<svg xmlns="http://www.w3.org/2000/svg"><path fill="#61BEE8" d="M171.118 98.875c26.918 26.92 34.494 36.843 6.13 65.216L132.236 209.1c-26.868 26.865-37.584 23.25-66.854-6.025L29.808 167.5c-27.515-27.51-29.168-38.67-3.5-64.34l45.007-45.01c28.887-28.89 39.525-19.554 64.996 5.917l34.808 34.805z"/><path fill="#F6ED4D" d="M169.77 80.8c26.92 26.92 34.496 36.838 6.126 65.21l-45.006 45.006c-26.87 26.87-37.587 23.254-66.854-6.02L28.46 149.418C.943 121.906-.708 110.75 24.957 85.085l45.01-45.01c28.89-28.888 39.524-19.556 64.996 5.916L169.77 80.8z"/><path fill="#E7425A" d="M168.652 63.042c26.92 26.923 34.497 36.84 6.13 65.21l-45.012 45.01c-26.868 26.87-37.584 23.248-66.852-6.02l-35.58-35.578c-27.514-27.512-29.165-38.668-3.5-64.333l45.005-45.006c28.892-28.892 39.53-19.56 65 5.915l34.81 34.804z"/><text transform="translate(42.337 147.781)" fill="#fff" font-family="'Comfortaa-Bold'" font-size="133.665">C</text></svg>