<svg xmlns="http://www.w3.org/2000/svg" width="189.875" height="69.25" viewBox="0 0 189.875 69.25"><path d="M37.5 49.656c-1.015 4.086-3.163 7.307-6.452 9.667-3.64 2.623-7.595 3.46-11.86 2.517-4.263-.93-7.598-3.38-10.012-7.33-2.412-3.947-3.192-8.23-2.324-12.854.867-4.635 3.12-8.258 6.753-10.874 3.294-2.36 6.885-3.255 10.78-2.665.74.083 1.432-.106 2.073-.565.717-.52 1.17-1.24 1.347-2.17.17-.932.02-1.785-.455-2.574-.542-.882-1.298-1.397-2.28-1.55-5.362-.768-10.34.503-14.944 3.815-5.09 3.656-8.24 8.73-9.454 15.22C-.54 46.773.542 52.77 3.91 58.297c3.377 5.518 8.047 8.935 14.026 10.25 5.983 1.316 11.515.145 16.602-3.515 2.802-2.013 5.016-4.477 6.65-7.366-1.718-2.576-2.886-5.408-3.492-8.49-.072.156-.145.31-.196.48zm20.76-28.643c-6.1 0-11.31 2.335-15.624 7.01-4.312 4.69-6.477 10.337-6.477 16.95 0 1.85.183 3.61.52 5.302.605 3.082 1.773 5.915 3.493 8.49.724 1.096 1.533 2.156 2.46 3.157 4.312 4.69 9.522 7.023 15.624 7.023s11.313-2.333 15.624-7.023c4.316-4.676 6.473-10.318 6.473-16.948 0-6.614-2.157-12.262-6.472-16.95-4.31-4.675-9.52-7.01-15.623-7.01zm11.17 36.084c-3.083 3.333-6.803 5.008-11.17 5.008-4.368 0-8.09-1.674-11.166-5.008-3.078-3.34-4.614-7.378-4.614-12.123 0-4.734 1.536-8.77 4.614-12.11 3.076-3.335 6.8-5.007 11.167-5.007s8.09 1.67 11.17 5.008c3.08 3.34 4.62 7.375 4.62 12.11 0 4.744-1.537 8.782-4.617 12.122zM123.995.38c-.865 0-1.608.334-2.23 1.002-.617.675-.928 1.48-.928 2.417v24.4c-.052-.06-.106-.11-.156-.18-4.312-4.675-9.52-7.01-15.63-7.01-6.094 0-11.303 2.335-15.622 7.01-4.306 4.69-6.47 10.337-6.47 16.95 0 6.63 2.164 12.273 6.47 16.95 4.32 4.69 9.528 7.023 15.626 7.023 6.11 0 11.314-2.333 15.63-7.023 4.317-4.674 6.468-10.316 6.468-16.946V3.8c0-.94-.306-1.743-.92-2.418C125.61.714 124.866.38 124 .38zm-7.772 56.717c-3.082 3.333-6.8 5.008-11.17 5.008-4.368 0-8.087-1.674-11.168-5.008-3.075-3.34-4.617-7.378-4.617-12.123 0-4.734 1.542-8.77 4.617-12.11 3.08-3.335 6.8-5.007 11.167-5.007 4.37 0 8.09 1.67 11.17 5.008 3.08 3.34 4.615 7.375 4.615 12.11 0 4.744-1.537 8.782-4.614 12.122zm20.767-50.64c-1.072 0-2.004.42-2.783 1.266-.77.838-1.16 1.844-1.16 3.013 0 1.174.39 2.18 1.16 3.017.778.848 1.71 1.268 2.784 1.268 1.08 0 2.01-.42 2.788-1.264.77-.835 1.16-1.842 1.16-3.017 0-1.17-.39-2.176-1.16-3.014-.778-.846-1.71-1.265-2.784-1.265zm0 14.556c-.87 0-1.61.33-2.226 1-.616.674-.93 1.48-.93 2.42v41.092c0 .935.314 1.75.93 2.414.616.673 1.357 1.002 2.227 1.002s1.61-.33 2.238-1.006c.618-.666.926-1.48.926-2.415V24.43c0-.94-.307-1.745-.925-2.42-.625-.67-1.366-1-2.235-1zm45.705 7.01c-4.31-4.675-9.52-7.01-15.622-7.01-6.103 0-11.314 2.335-15.626 7.01-4.317 4.69-6.47 10.337-6.47 16.95 0 6.63 2.153 12.273 6.47 16.95 4.312 4.69 9.524 7.022 15.626 7.022 5.524 0 10.324-1.92 14.4-5.775.606-.686.91-1.497.91-2.438 0-.942-.31-1.747-.93-2.426-.615-.666-1.363-1-2.228-1-.738 0-1.394.24-1.974.726-2.834 2.718-6.23 4.073-10.175 4.073-4.367 0-8.09-1.674-11.167-5.008-2.32-2.517-3.765-5.416-4.338-8.696h34.446c.865 0 1.61-.33 2.228-.993.62-.684.93-1.482.93-2.43 0-6.614-2.163-12.262-6.477-16.95zm-31.127 13.534c.574-3.28 2.017-6.182 4.338-8.692 3.076-3.336 6.8-5.008 11.167-5.008 4.368 0 8.09 1.67 11.165 5.008 2.316 2.51 3.763 5.412 4.343 8.692h-31.01z" fill="#53B1B9"/></svg>