<svg xmlns="http://www.w3.org/2000/svg" viewBox="0 0 400 98.5"><path fill="#204090" d="M49.2 0C22 0 0 22 0 49.2c0 27.2 22 49.2 49.2 49.2 27.2 0 49.2-22 49.2-49.2C98.5 22 76.4 0 49.2 0z"/><g fill="#204090"><path d="M166.3 38.6c0-7.6-4.8-9.9-10-9.9-7.2 0-13.6 3.4-13.6 11.2V65h-7.9V38.6c0-7.6-4.8-9.9-10-9.9-7.2 0-13.7 4.2-13.7 12.4v24h-7.9V23.5h7.9v6.3h.2c3.7-5.8 10.3-7.7 16.3-7.7 5.4 0 10.8 2.2 14.1 7.7 3.8-4.8 8.9-7.7 16.8-7.7 4.2 0 15.8 2 15.8 14.7V65h-7.9V38.6zM183.8 36.5c1-10.4 8.2-14.4 20.6-14.4 8.5 0 19.1 2.1 19.1 11.8v22.4c0 2.5 1.1 3.6 3.6 3.6.9 0 2-.2 2.8-.3V65c-1.9.3-4.3.5-6.2.5-4 0-6.6-1.1-7.1-5.8-3.2 4.3-11 6.7-17.7 6.7-13.8 0-16.9-7.1-16.9-12.5 0-7.6 4.5-11.5 17.9-12.9l9-1c4.4-.5 7.2-1.3 7.2-5 0-5.7-5.6-6.8-12-6.8-6.8 0-12.6 1.8-12.9 8.3h-7.4zm32.3 6.8c-1.2 1.3-3.3 1.9-7.8 2.5l-9 1.1c-6.2.8-9.4 2.5-9.4 6.8 0 3.9 3.9 6.6 9.7 6.6 9 0 16.5-4.8 16.5-11.7v-5.3zM235.3 23.5h7.9v7.6h.2c3.7-6.6 9-9 14.3-9 2 0 3 .1 4.5.5v8.6c-2-.5-3.5-.8-5.6-.8-7.9 0-13.3 4.6-13.3 13.7V65h-7.9V23.5zM273.2 52c0 3.7 3 8.3 13.1 8.3 10.2 0 12.7-3.6 12.7-6.5s-1.5-4.7-7.9-5.6L278 46.5c-6-.8-11.3-4.6-11.3-11 0-8.4 7.3-13.4 19-13.4 13.6 0 19.6 5.9 20.3 14h-7.9c-.2-4.2-4.2-7.8-12.5-7.8-5.1 0-11 1.4-11 6.3 0 2.8 1.3 4.4 6.9 5.2l11.3 1.5c10.5 1.4 14.5 5.2 14.5 11 0 9.7-8.2 14.2-20.9 14.2-9.5 0-20.4-2.5-21.3-14.5h8.1zM346.9 23.5h8.9l-21.7 48.7c-4 8.8-7.1 10.3-14.4 10.3-2 0-4-.2-6-.3v-6.7c1.4.1 2.7.3 4.6.3 4.9 0 6.1-1 8.7-6.3l1.8-3.8-19.2-42.2h9.1L333 56.4l13.9-32.9zM365.8 52c0 3.7 3 8.3 13.1 8.3 10.2 0 12.7-3.6 12.7-6.5s-1.5-4.7-7.9-5.6l-13.1-1.7c-6-.8-11.3-4.6-11.3-11 0-8.4 7.3-13.4 19-13.4 13.6 0 19.6 5.9 20.3 14h-7.9c-.2-4.2-4.2-7.8-12.5-7.8-5.1 0-11 1.4-11 6.3 0 2.8 1.3 4.4 6.9 5.2l11.3 1.5c10.5 1.4 14.5 5.2 14.5 11 0 9.7-8.2 14.2-20.9 14.2-9.5 0-20.4-2.5-21.3-14.5h8.1z"/></g><path fill="#fff" d="M51.9 46.6c.6 8.6 8.3 13.2 15.3 13.2 4.5 0 10.7-1.5 13.4-7.4H89c-4 10-13.3 14-21.4 14-16.2 0-24.1-10.2-24.1-22.2S51.4 22 67.6 22c11 0 22.5 6.3 22.5 23.6v1H51.9zm29.8-6.2c-1.2-7.5-7.1-11.7-14.5-11.7-7.3 0-13.9 4.3-15.1 11.7h29.6z"/><g fill="#204090"><path d="M104.2 82c0 2 1.1 4.4 3.7 4.4 2 0 3.1-1.2 3.5-2.8h1.4c-.6 2.5-2 4-4.8 4-3.5 0-5-2.7-5-5.9 0-2.9 1.5-5.9 5-5.9 3.6 0 5 3.1 4.9 6.2h-8.7zm7.2-1.1c-.1-2-1.3-4-3.5-4s-3.4 1.9-3.7 4h7.2zM115.8 76.1h1.2V78h.1c.7-1.3 1.9-2.2 3.6-2.2 1.5 0 2.8.7 3.2 2.2.7-1.5 2.1-2.2 3.5-2.2 2.4 0 3.7 1.3 3.7 3.9v7.5h-1.4v-7.5c0-1.8-.7-2.8-2.6-2.8-2.3 0-3 1.9-3 4v6.3h-1.4v-7.5c0-1.5-.6-2.8-2.3-2.8-2.3 0-3.3 1.8-3.3 4.1v6.2h-1.4V76.1zM134.7 79.5c.1-2.6 2-3.7 4.5-3.7 2 0 4.1.6 4.1 3.6v5.9c0 .5.3.8.8.8.2 0 .3 0 .4-.1v1.1c-.3.1-.5.1-.9.1-1.4 0-1.6-.8-1.6-1.9-.9 1.4-1.9 2.3-4 2.3-2 0-3.7-1-3.7-3.2 0-3.1 3-3.2 6-3.6 1.1-.1 1.7-.3 1.7-1.5 0-1.8-1.3-2.3-2.9-2.3-1.7 0-2.9.8-3 2.6h-1.4zm7.2 1.6c-.2.3-.8.4-1.2.5-2.3.4-5.2.4-5.2 2.6 0 1.4 1.2 2.2 2.5 2.2 2.1 0 3.9-1.3 3.9-3.5v-1.8zM147.1 76.1h1.2v2.6c.7-1.8 2.2-2.8 4.2-2.8v1.4c-2.4-.1-4.1 1.7-4.1 4v5.9H147V76.1zM155.1 71.8h1.4v9.6l6.1-5.4h1.8l-4.7 4.1 5.1 7H163l-4.4-6-2.2 1.8v4.2H155V71.8zM167.8 82c0 2 1.1 4.4 3.7 4.4 2 0 3.1-1.2 3.5-2.8h1.4c-.6 2.5-2 4-4.8 4-3.5 0-5-2.7-5-5.9 0-2.9 1.5-5.9 5-5.9 3.6 0 5 3.1 4.9 6.2h-8.7zm7.1-1.1c-.1-2-1.3-4-3.5-4s-3.4 1.9-3.7 4h7.2zM181.4 76.1h2.3v1.1h-2.3v7.5c0 .9.1 1.4 1.1 1.5.4 0 .8 0 1.2-.1v1.2h-1.2c-1.8 0-2.4-.6-2.4-2.5v-7.6h-1.9v-1.1h1.9v-3.3h1.4v3.3zM186.8 71.8h1.4V74h-1.4v-2.2zm0 4.3h1.4v11.1h-1.4V76.1zM191.9 76.1h1.4V78c.5-1.3 2-2.2 3.5-2.2 3.1 0 4.1 1.6 4.1 4.3v7.1h-1.4v-6.9c0-1.9-.6-3.4-2.8-3.4-2.1 0-3.4 1.6-3.5 3.8v6.5h-1.4V76.1zM214 86.3c0 3.3-1.3 5.3-4.9 5.3-2.2 0-4.4-1-4.6-3.4h1.4c.3 1.6 1.7 2.2 3.2 2.2 2.5 0 3.6-1.5 3.6-4.2v-1.5c-.6 1.4-1.9 2.3-3.5 2.3-3.5 0-5-2.5-5-5.7 0-3.1 1.8-5.6 5-5.6 1.6 0 3 1 3.5 2.2V76h1.4v10.3zm-1.3-4.8c0-2.2-1-4.6-3.6-4.6s-3.7 2.3-3.7 4.6c0 2.2 1.2 4.4 3.7 4.4 2.3 0 3.6-2.1 3.6-4.4zM231.5 79.3c-.1-1.7-1.4-2.4-2.9-2.4-1.2 0-2.6.5-2.6 1.9 0 1.2 1.4 1.6 2.3 1.9l1.8.4c1.5.2 3.2 1.1 3.2 3.1 0 2.4-2.4 3.3-4.4 3.3-2.6 0-4.3-1.2-4.6-3.9h1.4c.1 1.8 1.5 2.8 3.3 2.8 1.3 0 3-.6 3-2.1 0-1.3-1.2-1.7-2.4-2l-1.7-.4c-1.8-.5-3.1-1.1-3.1-3 0-2.3 2.2-3.1 4.2-3.1 2.2 0 4 1.2 4.1 3.6h-1.6zM235.1 76.1h1.4l3.7 9.5 3.4-9.5h1.4l-4.8 12.8c-.8 1.9-1.2 2.4-2.9 2.4-.5 0-.8 0-1-.1V90c.3.1.6.1.9.1 1.2 0 1.5-.7 1.9-1.7l.5-1.3-4.5-11zM254.1 79.3c-.1-1.7-1.4-2.4-2.9-2.4-1.2 0-2.6.5-2.6 1.9 0 1.2 1.4 1.6 2.3 1.9l1.8.4c1.5.2 3.2 1.1 3.2 3.1 0 2.4-2.4 3.3-4.4 3.3-2.6 0-4.3-1.2-4.6-3.9h1.4c.1 1.8 1.5 2.8 3.3 2.8 1.3 0 3-.6 3-2.1 0-1.3-1.2-1.7-2.4-2l-1.7-.4c-1.8-.5-3.1-1.1-3.1-3 0-2.3 2.2-3.1 4.2-3.1 2.2 0 4 1.2 4.1 3.6h-1.6zM261.1 76.1h2.3v1.1h-2.3v7.5c0 .9.1 1.4 1.1 1.5.4 0 .8 0 1.2-.1v1.2h-1.2c-1.8 0-2.4-.6-2.4-2.5v-7.6h-1.9v-1.1h1.9v-3.3h1.4v3.3zM267.3 82c0 2 1.1 4.4 3.7 4.4 2 0 3.1-1.2 3.5-2.8h1.4c-.6 2.5-2 4-4.8 4-3.5 0-5-2.7-5-5.9 0-2.9 1.5-5.9 5-5.9 3.6 0 5 3.1 4.9 6.2h-8.7zm7.2-1.1c-.1-2-1.3-4-3.5-4s-3.4 1.9-3.7 4h7.2zM278.8 76.1h1.2V78h.1c.7-1.3 1.9-2.2 3.6-2.2 1.5 0 2.8.7 3.2 2.2.7-1.5 2.1-2.2 3.5-2.2 2.4 0 3.7 1.3 3.7 3.9v7.5h-1.4v-7.5c0-1.8-.7-2.8-2.6-2.8-2.3 0-3 1.9-3 4v6.3h-1.4v-7.5c0-1.5-.6-2.8-2.3-2.8-2.3 0-3.3 1.8-3.3 4.1v6.2h-1.4V76.1zM304.5 79.3c-.1-1.7-1.4-2.4-2.9-2.4-1.2 0-2.6.5-2.6 1.9 0 1.2 1.4 1.6 2.3 1.9l1.8.4c1.5.2 3.2 1.1 3.2 3.1 0 2.4-2.4 3.3-4.4 3.3-2.6 0-4.3-1.2-4.6-3.9h1.4c.1 1.8 1.5 2.8 3.3 2.8 1.3 0 3-.6 3-2.1 0-1.3-1.2-1.7-2.4-2l-1.7-.4c-1.8-.5-3.1-1.1-3.1-3 0-2.3 2.2-3.1 4.2-3.1 2.2 0 4 1.2 4.1 3.6h-1.6z"/></g></svg>